%
M48
M72
T01C0.01378
T02C0.03150
T03C0.03200
T04C0.03937
T05C0.04000
T06C0.07000
T07C0.07874
%
T01
X181700Y241100
X126500Y226100
X126500Y221300
X163100Y184700
X178100Y170900
T02
X181300Y176300
X171300Y176300
X161300Y176300
X151300Y176300
X141300Y176300
X131300Y176300
X121300Y176300
X111300Y176300
X101300Y176300
X91300Y176300
X81300Y176300
X71300Y176300
X61300Y176300
X51300Y176300
X51300Y156300
X61300Y156300
X71300Y156300
X81300Y156300
X91300Y156300
X101300Y156300
X111300Y156300
X121300Y156300
X141300Y156300
X151300Y156300
X161300Y156300
X171300Y156300
X181300Y156300
X191300Y156300
X201300Y156300
X211300Y156300
X231300Y156300
X241300Y156300
X251300Y156300
X261300Y156300
X271300Y156300
X281300Y156300
X291300Y156300
X301300Y156300
X321300Y156300
X331300Y156300
X341300Y156300
X351300Y156300
X361300Y156300
X371300Y156300
X381300Y156300
X391300Y156300
X373111Y191300
X361300Y210198
X361300Y106300
X351300Y106300
X341300Y106300
X331300Y106300
X321300Y106300
X301300Y106300
X291300Y106300
X281300Y106300
X271300Y106300
X261300Y106300
X251300Y106300
X241300Y106300
X231300Y106300
X211300Y106300
X201300Y106300
X191300Y106300
X181300Y106300
X171300Y106300
X161300Y106300
X151300Y106300
X141300Y106300
X121300Y106300
X111300Y106300
X101300Y106300
X91300Y106300
X81300Y106300
X71300Y106300
X61300Y106300
X51300Y106300
X191300Y176300
X191300Y236300
X181300Y236300
X171300Y236300
X161300Y236300
X151300Y236300
X141300Y236300
X131300Y236300
X121300Y236300
X111300Y236300
X101300Y236300
X91300Y236300
X81300Y236300
X71300Y236300
X61300Y236300
X51300Y236300
X371300Y106300
X381300Y106300
X391300Y106300
T03
X331300Y201300
X331300Y191300
X281300Y191300
X281300Y201300
T04
X349489Y191300
T05
X261300Y196300
X251300Y196300
X241300Y196300
X231300Y196300
X231300Y186300
X241300Y186300
X251300Y186300
X261300Y186300
X261300Y176300
X251300Y176300
X241300Y176300
X231300Y176300
X229300Y213300
X240300Y213300
X251300Y213300
X262300Y213300
X262300Y223300
X251300Y223300
X240300Y223300
X229300Y223300
X229300Y233300
X240300Y233300
X251300Y233300
X262300Y233300
X262300Y243300
X251300Y243300
X240300Y243300
X229300Y243300
X251300Y81300
X261300Y81300
X271300Y81300
X281300Y81300
X341300Y81300
X351300Y81300
X361300Y81300
X371300Y81300
X191300Y81300
X181300Y81300
X171300Y81300
X161300Y81300
X101300Y81300
X91300Y81300
X81300Y81300
X71300Y81300
T06
X41300Y176300
X41300Y236300
X201300Y236300
X201300Y176300
T07
X41300Y81300
X396300Y241300
X396300Y81300
M30
