G75*
%MOIN*%
%OFA0B0*%
%FSLAX25Y25*%
%IPPOS*%
%LPD*%
%AMOC8*
5,1,8,0,0,1.08239X$1,22.5*
%
%ADD10C,0.00000*%
D10*
X0043111Y0071300D02*
X0394410Y0071300D01*
X0392363Y0081300D02*
X0392365Y0081425D01*
X0392371Y0081550D01*
X0392381Y0081674D01*
X0392395Y0081798D01*
X0392412Y0081922D01*
X0392434Y0082045D01*
X0392460Y0082167D01*
X0392489Y0082289D01*
X0392522Y0082409D01*
X0392560Y0082528D01*
X0392600Y0082647D01*
X0392645Y0082763D01*
X0392693Y0082878D01*
X0392745Y0082992D01*
X0392801Y0083104D01*
X0392860Y0083214D01*
X0392922Y0083322D01*
X0392988Y0083429D01*
X0393057Y0083533D01*
X0393130Y0083634D01*
X0393205Y0083734D01*
X0393284Y0083831D01*
X0393366Y0083925D01*
X0393451Y0084017D01*
X0393538Y0084106D01*
X0393629Y0084192D01*
X0393722Y0084275D01*
X0393818Y0084356D01*
X0393916Y0084433D01*
X0394016Y0084507D01*
X0394119Y0084578D01*
X0394224Y0084645D01*
X0394332Y0084710D01*
X0394441Y0084770D01*
X0394552Y0084828D01*
X0394665Y0084881D01*
X0394779Y0084931D01*
X0394895Y0084978D01*
X0395012Y0085020D01*
X0395131Y0085059D01*
X0395251Y0085095D01*
X0395372Y0085126D01*
X0395494Y0085154D01*
X0395616Y0085177D01*
X0395740Y0085197D01*
X0395864Y0085213D01*
X0395988Y0085225D01*
X0396113Y0085233D01*
X0396238Y0085237D01*
X0396362Y0085237D01*
X0396487Y0085233D01*
X0396612Y0085225D01*
X0396736Y0085213D01*
X0396860Y0085197D01*
X0396984Y0085177D01*
X0397106Y0085154D01*
X0397228Y0085126D01*
X0397349Y0085095D01*
X0397469Y0085059D01*
X0397588Y0085020D01*
X0397705Y0084978D01*
X0397821Y0084931D01*
X0397935Y0084881D01*
X0398048Y0084828D01*
X0398159Y0084770D01*
X0398269Y0084710D01*
X0398376Y0084645D01*
X0398481Y0084578D01*
X0398584Y0084507D01*
X0398684Y0084433D01*
X0398782Y0084356D01*
X0398878Y0084275D01*
X0398971Y0084192D01*
X0399062Y0084106D01*
X0399149Y0084017D01*
X0399234Y0083925D01*
X0399316Y0083831D01*
X0399395Y0083734D01*
X0399470Y0083634D01*
X0399543Y0083533D01*
X0399612Y0083429D01*
X0399678Y0083322D01*
X0399740Y0083214D01*
X0399799Y0083104D01*
X0399855Y0082992D01*
X0399907Y0082878D01*
X0399955Y0082763D01*
X0400000Y0082647D01*
X0400040Y0082528D01*
X0400078Y0082409D01*
X0400111Y0082289D01*
X0400140Y0082167D01*
X0400166Y0082045D01*
X0400188Y0081922D01*
X0400205Y0081798D01*
X0400219Y0081674D01*
X0400229Y0081550D01*
X0400235Y0081425D01*
X0400237Y0081300D01*
X0400235Y0081175D01*
X0400229Y0081050D01*
X0400219Y0080926D01*
X0400205Y0080802D01*
X0400188Y0080678D01*
X0400166Y0080555D01*
X0400140Y0080433D01*
X0400111Y0080311D01*
X0400078Y0080191D01*
X0400040Y0080072D01*
X0400000Y0079953D01*
X0399955Y0079837D01*
X0399907Y0079722D01*
X0399855Y0079608D01*
X0399799Y0079496D01*
X0399740Y0079386D01*
X0399678Y0079278D01*
X0399612Y0079171D01*
X0399543Y0079067D01*
X0399470Y0078966D01*
X0399395Y0078866D01*
X0399316Y0078769D01*
X0399234Y0078675D01*
X0399149Y0078583D01*
X0399062Y0078494D01*
X0398971Y0078408D01*
X0398878Y0078325D01*
X0398782Y0078244D01*
X0398684Y0078167D01*
X0398584Y0078093D01*
X0398481Y0078022D01*
X0398376Y0077955D01*
X0398268Y0077890D01*
X0398159Y0077830D01*
X0398048Y0077772D01*
X0397935Y0077719D01*
X0397821Y0077669D01*
X0397705Y0077622D01*
X0397588Y0077580D01*
X0397469Y0077541D01*
X0397349Y0077505D01*
X0397228Y0077474D01*
X0397106Y0077446D01*
X0396984Y0077423D01*
X0396860Y0077403D01*
X0396736Y0077387D01*
X0396612Y0077375D01*
X0396487Y0077367D01*
X0396362Y0077363D01*
X0396238Y0077363D01*
X0396113Y0077367D01*
X0395988Y0077375D01*
X0395864Y0077387D01*
X0395740Y0077403D01*
X0395616Y0077423D01*
X0395494Y0077446D01*
X0395372Y0077474D01*
X0395251Y0077505D01*
X0395131Y0077541D01*
X0395012Y0077580D01*
X0394895Y0077622D01*
X0394779Y0077669D01*
X0394665Y0077719D01*
X0394552Y0077772D01*
X0394441Y0077830D01*
X0394331Y0077890D01*
X0394224Y0077955D01*
X0394119Y0078022D01*
X0394016Y0078093D01*
X0393916Y0078167D01*
X0393818Y0078244D01*
X0393722Y0078325D01*
X0393629Y0078408D01*
X0393538Y0078494D01*
X0393451Y0078583D01*
X0393366Y0078675D01*
X0393284Y0078769D01*
X0393205Y0078866D01*
X0393130Y0078966D01*
X0393057Y0079067D01*
X0392988Y0079171D01*
X0392922Y0079278D01*
X0392860Y0079386D01*
X0392801Y0079496D01*
X0392745Y0079608D01*
X0392693Y0079722D01*
X0392645Y0079837D01*
X0392600Y0079953D01*
X0392560Y0080072D01*
X0392522Y0080191D01*
X0392489Y0080311D01*
X0392460Y0080433D01*
X0392434Y0080555D01*
X0392412Y0080678D01*
X0392395Y0080802D01*
X0392381Y0080926D01*
X0392371Y0081050D01*
X0392365Y0081175D01*
X0392363Y0081300D01*
X0394410Y0071300D02*
X0394695Y0071303D01*
X0394981Y0071314D01*
X0395266Y0071331D01*
X0395550Y0071355D01*
X0395834Y0071386D01*
X0396117Y0071424D01*
X0396398Y0071469D01*
X0396679Y0071520D01*
X0396959Y0071578D01*
X0397237Y0071643D01*
X0397513Y0071715D01*
X0397787Y0071793D01*
X0398060Y0071878D01*
X0398330Y0071970D01*
X0398598Y0072068D01*
X0398864Y0072172D01*
X0399127Y0072283D01*
X0399387Y0072400D01*
X0399645Y0072523D01*
X0399899Y0072653D01*
X0400150Y0072789D01*
X0400398Y0072930D01*
X0400642Y0073078D01*
X0400883Y0073231D01*
X0401119Y0073391D01*
X0401352Y0073556D01*
X0401581Y0073726D01*
X0401806Y0073902D01*
X0402026Y0074084D01*
X0402242Y0074270D01*
X0402453Y0074462D01*
X0402660Y0074659D01*
X0402862Y0074861D01*
X0403059Y0075068D01*
X0403251Y0075279D01*
X0403437Y0075495D01*
X0403619Y0075715D01*
X0403795Y0075940D01*
X0403965Y0076169D01*
X0404130Y0076402D01*
X0404290Y0076638D01*
X0404443Y0076879D01*
X0404591Y0077123D01*
X0404732Y0077371D01*
X0404868Y0077622D01*
X0404998Y0077876D01*
X0405121Y0078134D01*
X0405238Y0078394D01*
X0405349Y0078657D01*
X0405453Y0078923D01*
X0405551Y0079191D01*
X0405643Y0079461D01*
X0405728Y0079734D01*
X0405806Y0080008D01*
X0405878Y0080284D01*
X0405943Y0080562D01*
X0406001Y0080842D01*
X0406052Y0081123D01*
X0406097Y0081404D01*
X0406135Y0081687D01*
X0406166Y0081971D01*
X0406190Y0082255D01*
X0406207Y0082540D01*
X0406218Y0082826D01*
X0406221Y0083111D01*
X0406221Y0238190D01*
X0392363Y0241300D02*
X0392365Y0241425D01*
X0392371Y0241550D01*
X0392381Y0241674D01*
X0392395Y0241798D01*
X0392412Y0241922D01*
X0392434Y0242045D01*
X0392460Y0242167D01*
X0392489Y0242289D01*
X0392522Y0242409D01*
X0392560Y0242528D01*
X0392600Y0242647D01*
X0392645Y0242763D01*
X0392693Y0242878D01*
X0392745Y0242992D01*
X0392801Y0243104D01*
X0392860Y0243214D01*
X0392922Y0243322D01*
X0392988Y0243429D01*
X0393057Y0243533D01*
X0393130Y0243634D01*
X0393205Y0243734D01*
X0393284Y0243831D01*
X0393366Y0243925D01*
X0393451Y0244017D01*
X0393538Y0244106D01*
X0393629Y0244192D01*
X0393722Y0244275D01*
X0393818Y0244356D01*
X0393916Y0244433D01*
X0394016Y0244507D01*
X0394119Y0244578D01*
X0394224Y0244645D01*
X0394332Y0244710D01*
X0394441Y0244770D01*
X0394552Y0244828D01*
X0394665Y0244881D01*
X0394779Y0244931D01*
X0394895Y0244978D01*
X0395012Y0245020D01*
X0395131Y0245059D01*
X0395251Y0245095D01*
X0395372Y0245126D01*
X0395494Y0245154D01*
X0395616Y0245177D01*
X0395740Y0245197D01*
X0395864Y0245213D01*
X0395988Y0245225D01*
X0396113Y0245233D01*
X0396238Y0245237D01*
X0396362Y0245237D01*
X0396487Y0245233D01*
X0396612Y0245225D01*
X0396736Y0245213D01*
X0396860Y0245197D01*
X0396984Y0245177D01*
X0397106Y0245154D01*
X0397228Y0245126D01*
X0397349Y0245095D01*
X0397469Y0245059D01*
X0397588Y0245020D01*
X0397705Y0244978D01*
X0397821Y0244931D01*
X0397935Y0244881D01*
X0398048Y0244828D01*
X0398159Y0244770D01*
X0398269Y0244710D01*
X0398376Y0244645D01*
X0398481Y0244578D01*
X0398584Y0244507D01*
X0398684Y0244433D01*
X0398782Y0244356D01*
X0398878Y0244275D01*
X0398971Y0244192D01*
X0399062Y0244106D01*
X0399149Y0244017D01*
X0399234Y0243925D01*
X0399316Y0243831D01*
X0399395Y0243734D01*
X0399470Y0243634D01*
X0399543Y0243533D01*
X0399612Y0243429D01*
X0399678Y0243322D01*
X0399740Y0243214D01*
X0399799Y0243104D01*
X0399855Y0242992D01*
X0399907Y0242878D01*
X0399955Y0242763D01*
X0400000Y0242647D01*
X0400040Y0242528D01*
X0400078Y0242409D01*
X0400111Y0242289D01*
X0400140Y0242167D01*
X0400166Y0242045D01*
X0400188Y0241922D01*
X0400205Y0241798D01*
X0400219Y0241674D01*
X0400229Y0241550D01*
X0400235Y0241425D01*
X0400237Y0241300D01*
X0400235Y0241175D01*
X0400229Y0241050D01*
X0400219Y0240926D01*
X0400205Y0240802D01*
X0400188Y0240678D01*
X0400166Y0240555D01*
X0400140Y0240433D01*
X0400111Y0240311D01*
X0400078Y0240191D01*
X0400040Y0240072D01*
X0400000Y0239953D01*
X0399955Y0239837D01*
X0399907Y0239722D01*
X0399855Y0239608D01*
X0399799Y0239496D01*
X0399740Y0239386D01*
X0399678Y0239278D01*
X0399612Y0239171D01*
X0399543Y0239067D01*
X0399470Y0238966D01*
X0399395Y0238866D01*
X0399316Y0238769D01*
X0399234Y0238675D01*
X0399149Y0238583D01*
X0399062Y0238494D01*
X0398971Y0238408D01*
X0398878Y0238325D01*
X0398782Y0238244D01*
X0398684Y0238167D01*
X0398584Y0238093D01*
X0398481Y0238022D01*
X0398376Y0237955D01*
X0398268Y0237890D01*
X0398159Y0237830D01*
X0398048Y0237772D01*
X0397935Y0237719D01*
X0397821Y0237669D01*
X0397705Y0237622D01*
X0397588Y0237580D01*
X0397469Y0237541D01*
X0397349Y0237505D01*
X0397228Y0237474D01*
X0397106Y0237446D01*
X0396984Y0237423D01*
X0396860Y0237403D01*
X0396736Y0237387D01*
X0396612Y0237375D01*
X0396487Y0237367D01*
X0396362Y0237363D01*
X0396238Y0237363D01*
X0396113Y0237367D01*
X0395988Y0237375D01*
X0395864Y0237387D01*
X0395740Y0237403D01*
X0395616Y0237423D01*
X0395494Y0237446D01*
X0395372Y0237474D01*
X0395251Y0237505D01*
X0395131Y0237541D01*
X0395012Y0237580D01*
X0394895Y0237622D01*
X0394779Y0237669D01*
X0394665Y0237719D01*
X0394552Y0237772D01*
X0394441Y0237830D01*
X0394331Y0237890D01*
X0394224Y0237955D01*
X0394119Y0238022D01*
X0394016Y0238093D01*
X0393916Y0238167D01*
X0393818Y0238244D01*
X0393722Y0238325D01*
X0393629Y0238408D01*
X0393538Y0238494D01*
X0393451Y0238583D01*
X0393366Y0238675D01*
X0393284Y0238769D01*
X0393205Y0238866D01*
X0393130Y0238966D01*
X0393057Y0239067D01*
X0392988Y0239171D01*
X0392922Y0239278D01*
X0392860Y0239386D01*
X0392801Y0239496D01*
X0392745Y0239608D01*
X0392693Y0239722D01*
X0392645Y0239837D01*
X0392600Y0239953D01*
X0392560Y0240072D01*
X0392522Y0240191D01*
X0392489Y0240311D01*
X0392460Y0240433D01*
X0392434Y0240555D01*
X0392412Y0240678D01*
X0392395Y0240802D01*
X0392381Y0240926D01*
X0392371Y0241050D01*
X0392365Y0241175D01*
X0392363Y0241300D01*
X0394410Y0250001D02*
X0394695Y0249998D01*
X0394981Y0249987D01*
X0395266Y0249970D01*
X0395550Y0249946D01*
X0395834Y0249915D01*
X0396117Y0249877D01*
X0396398Y0249832D01*
X0396679Y0249781D01*
X0396959Y0249723D01*
X0397237Y0249658D01*
X0397513Y0249586D01*
X0397787Y0249508D01*
X0398060Y0249423D01*
X0398330Y0249331D01*
X0398598Y0249233D01*
X0398864Y0249129D01*
X0399127Y0249018D01*
X0399387Y0248901D01*
X0399645Y0248778D01*
X0399899Y0248648D01*
X0400150Y0248512D01*
X0400398Y0248371D01*
X0400642Y0248223D01*
X0400883Y0248070D01*
X0401119Y0247910D01*
X0401352Y0247745D01*
X0401581Y0247575D01*
X0401806Y0247399D01*
X0402026Y0247217D01*
X0402242Y0247031D01*
X0402453Y0246839D01*
X0402660Y0246642D01*
X0402862Y0246440D01*
X0403059Y0246233D01*
X0403251Y0246022D01*
X0403437Y0245806D01*
X0403619Y0245586D01*
X0403795Y0245361D01*
X0403965Y0245132D01*
X0404130Y0244899D01*
X0404290Y0244663D01*
X0404443Y0244422D01*
X0404591Y0244178D01*
X0404732Y0243930D01*
X0404868Y0243679D01*
X0404998Y0243425D01*
X0405121Y0243167D01*
X0405238Y0242907D01*
X0405349Y0242644D01*
X0405453Y0242378D01*
X0405551Y0242110D01*
X0405643Y0241840D01*
X0405728Y0241567D01*
X0405806Y0241293D01*
X0405878Y0241017D01*
X0405943Y0240739D01*
X0406001Y0240459D01*
X0406052Y0240178D01*
X0406097Y0239897D01*
X0406135Y0239614D01*
X0406166Y0239330D01*
X0406190Y0239046D01*
X0406207Y0238761D01*
X0406218Y0238475D01*
X0406221Y0238190D01*
X0394410Y0250001D02*
X0043111Y0250001D01*
X0042826Y0249998D01*
X0042540Y0249987D01*
X0042255Y0249970D01*
X0041971Y0249946D01*
X0041687Y0249915D01*
X0041404Y0249877D01*
X0041123Y0249832D01*
X0040842Y0249781D01*
X0040562Y0249723D01*
X0040284Y0249658D01*
X0040008Y0249586D01*
X0039734Y0249508D01*
X0039461Y0249423D01*
X0039191Y0249331D01*
X0038923Y0249233D01*
X0038657Y0249129D01*
X0038394Y0249018D01*
X0038134Y0248901D01*
X0037876Y0248778D01*
X0037622Y0248648D01*
X0037371Y0248512D01*
X0037123Y0248371D01*
X0036879Y0248223D01*
X0036638Y0248070D01*
X0036402Y0247910D01*
X0036169Y0247745D01*
X0035940Y0247575D01*
X0035715Y0247399D01*
X0035495Y0247217D01*
X0035279Y0247031D01*
X0035068Y0246839D01*
X0034861Y0246642D01*
X0034659Y0246440D01*
X0034462Y0246233D01*
X0034270Y0246022D01*
X0034084Y0245806D01*
X0033902Y0245586D01*
X0033726Y0245361D01*
X0033556Y0245132D01*
X0033391Y0244899D01*
X0033231Y0244663D01*
X0033078Y0244422D01*
X0032930Y0244178D01*
X0032789Y0243930D01*
X0032653Y0243679D01*
X0032523Y0243425D01*
X0032400Y0243167D01*
X0032283Y0242907D01*
X0032172Y0242644D01*
X0032068Y0242378D01*
X0031970Y0242110D01*
X0031878Y0241840D01*
X0031793Y0241567D01*
X0031715Y0241293D01*
X0031643Y0241017D01*
X0031578Y0240739D01*
X0031520Y0240459D01*
X0031469Y0240178D01*
X0031424Y0239897D01*
X0031386Y0239614D01*
X0031355Y0239330D01*
X0031331Y0239046D01*
X0031314Y0238761D01*
X0031303Y0238475D01*
X0031300Y0238190D01*
X0031300Y0083111D01*
X0037363Y0081300D02*
X0037365Y0081425D01*
X0037371Y0081550D01*
X0037381Y0081674D01*
X0037395Y0081798D01*
X0037412Y0081922D01*
X0037434Y0082045D01*
X0037460Y0082167D01*
X0037489Y0082289D01*
X0037522Y0082409D01*
X0037560Y0082528D01*
X0037600Y0082647D01*
X0037645Y0082763D01*
X0037693Y0082878D01*
X0037745Y0082992D01*
X0037801Y0083104D01*
X0037860Y0083214D01*
X0037922Y0083322D01*
X0037988Y0083429D01*
X0038057Y0083533D01*
X0038130Y0083634D01*
X0038205Y0083734D01*
X0038284Y0083831D01*
X0038366Y0083925D01*
X0038451Y0084017D01*
X0038538Y0084106D01*
X0038629Y0084192D01*
X0038722Y0084275D01*
X0038818Y0084356D01*
X0038916Y0084433D01*
X0039016Y0084507D01*
X0039119Y0084578D01*
X0039224Y0084645D01*
X0039332Y0084710D01*
X0039441Y0084770D01*
X0039552Y0084828D01*
X0039665Y0084881D01*
X0039779Y0084931D01*
X0039895Y0084978D01*
X0040012Y0085020D01*
X0040131Y0085059D01*
X0040251Y0085095D01*
X0040372Y0085126D01*
X0040494Y0085154D01*
X0040616Y0085177D01*
X0040740Y0085197D01*
X0040864Y0085213D01*
X0040988Y0085225D01*
X0041113Y0085233D01*
X0041238Y0085237D01*
X0041362Y0085237D01*
X0041487Y0085233D01*
X0041612Y0085225D01*
X0041736Y0085213D01*
X0041860Y0085197D01*
X0041984Y0085177D01*
X0042106Y0085154D01*
X0042228Y0085126D01*
X0042349Y0085095D01*
X0042469Y0085059D01*
X0042588Y0085020D01*
X0042705Y0084978D01*
X0042821Y0084931D01*
X0042935Y0084881D01*
X0043048Y0084828D01*
X0043159Y0084770D01*
X0043269Y0084710D01*
X0043376Y0084645D01*
X0043481Y0084578D01*
X0043584Y0084507D01*
X0043684Y0084433D01*
X0043782Y0084356D01*
X0043878Y0084275D01*
X0043971Y0084192D01*
X0044062Y0084106D01*
X0044149Y0084017D01*
X0044234Y0083925D01*
X0044316Y0083831D01*
X0044395Y0083734D01*
X0044470Y0083634D01*
X0044543Y0083533D01*
X0044612Y0083429D01*
X0044678Y0083322D01*
X0044740Y0083214D01*
X0044799Y0083104D01*
X0044855Y0082992D01*
X0044907Y0082878D01*
X0044955Y0082763D01*
X0045000Y0082647D01*
X0045040Y0082528D01*
X0045078Y0082409D01*
X0045111Y0082289D01*
X0045140Y0082167D01*
X0045166Y0082045D01*
X0045188Y0081922D01*
X0045205Y0081798D01*
X0045219Y0081674D01*
X0045229Y0081550D01*
X0045235Y0081425D01*
X0045237Y0081300D01*
X0045235Y0081175D01*
X0045229Y0081050D01*
X0045219Y0080926D01*
X0045205Y0080802D01*
X0045188Y0080678D01*
X0045166Y0080555D01*
X0045140Y0080433D01*
X0045111Y0080311D01*
X0045078Y0080191D01*
X0045040Y0080072D01*
X0045000Y0079953D01*
X0044955Y0079837D01*
X0044907Y0079722D01*
X0044855Y0079608D01*
X0044799Y0079496D01*
X0044740Y0079386D01*
X0044678Y0079278D01*
X0044612Y0079171D01*
X0044543Y0079067D01*
X0044470Y0078966D01*
X0044395Y0078866D01*
X0044316Y0078769D01*
X0044234Y0078675D01*
X0044149Y0078583D01*
X0044062Y0078494D01*
X0043971Y0078408D01*
X0043878Y0078325D01*
X0043782Y0078244D01*
X0043684Y0078167D01*
X0043584Y0078093D01*
X0043481Y0078022D01*
X0043376Y0077955D01*
X0043268Y0077890D01*
X0043159Y0077830D01*
X0043048Y0077772D01*
X0042935Y0077719D01*
X0042821Y0077669D01*
X0042705Y0077622D01*
X0042588Y0077580D01*
X0042469Y0077541D01*
X0042349Y0077505D01*
X0042228Y0077474D01*
X0042106Y0077446D01*
X0041984Y0077423D01*
X0041860Y0077403D01*
X0041736Y0077387D01*
X0041612Y0077375D01*
X0041487Y0077367D01*
X0041362Y0077363D01*
X0041238Y0077363D01*
X0041113Y0077367D01*
X0040988Y0077375D01*
X0040864Y0077387D01*
X0040740Y0077403D01*
X0040616Y0077423D01*
X0040494Y0077446D01*
X0040372Y0077474D01*
X0040251Y0077505D01*
X0040131Y0077541D01*
X0040012Y0077580D01*
X0039895Y0077622D01*
X0039779Y0077669D01*
X0039665Y0077719D01*
X0039552Y0077772D01*
X0039441Y0077830D01*
X0039331Y0077890D01*
X0039224Y0077955D01*
X0039119Y0078022D01*
X0039016Y0078093D01*
X0038916Y0078167D01*
X0038818Y0078244D01*
X0038722Y0078325D01*
X0038629Y0078408D01*
X0038538Y0078494D01*
X0038451Y0078583D01*
X0038366Y0078675D01*
X0038284Y0078769D01*
X0038205Y0078866D01*
X0038130Y0078966D01*
X0038057Y0079067D01*
X0037988Y0079171D01*
X0037922Y0079278D01*
X0037860Y0079386D01*
X0037801Y0079496D01*
X0037745Y0079608D01*
X0037693Y0079722D01*
X0037645Y0079837D01*
X0037600Y0079953D01*
X0037560Y0080072D01*
X0037522Y0080191D01*
X0037489Y0080311D01*
X0037460Y0080433D01*
X0037434Y0080555D01*
X0037412Y0080678D01*
X0037395Y0080802D01*
X0037381Y0080926D01*
X0037371Y0081050D01*
X0037365Y0081175D01*
X0037363Y0081300D01*
X0031300Y0083111D02*
X0031303Y0082826D01*
X0031314Y0082540D01*
X0031331Y0082255D01*
X0031355Y0081971D01*
X0031386Y0081687D01*
X0031424Y0081404D01*
X0031469Y0081123D01*
X0031520Y0080842D01*
X0031578Y0080562D01*
X0031643Y0080284D01*
X0031715Y0080008D01*
X0031793Y0079734D01*
X0031878Y0079461D01*
X0031970Y0079191D01*
X0032068Y0078923D01*
X0032172Y0078657D01*
X0032283Y0078394D01*
X0032400Y0078134D01*
X0032523Y0077876D01*
X0032653Y0077622D01*
X0032789Y0077371D01*
X0032930Y0077123D01*
X0033078Y0076879D01*
X0033231Y0076638D01*
X0033391Y0076402D01*
X0033556Y0076169D01*
X0033726Y0075940D01*
X0033902Y0075715D01*
X0034084Y0075495D01*
X0034270Y0075279D01*
X0034462Y0075068D01*
X0034659Y0074861D01*
X0034861Y0074659D01*
X0035068Y0074462D01*
X0035279Y0074270D01*
X0035495Y0074084D01*
X0035715Y0073902D01*
X0035940Y0073726D01*
X0036169Y0073556D01*
X0036402Y0073391D01*
X0036638Y0073231D01*
X0036879Y0073078D01*
X0037123Y0072930D01*
X0037371Y0072789D01*
X0037622Y0072653D01*
X0037876Y0072523D01*
X0038134Y0072400D01*
X0038394Y0072283D01*
X0038657Y0072172D01*
X0038923Y0072068D01*
X0039191Y0071970D01*
X0039461Y0071878D01*
X0039734Y0071793D01*
X0040008Y0071715D01*
X0040284Y0071643D01*
X0040562Y0071578D01*
X0040842Y0071520D01*
X0041123Y0071469D01*
X0041404Y0071424D01*
X0041687Y0071386D01*
X0041971Y0071355D01*
X0042255Y0071331D01*
X0042540Y0071314D01*
X0042826Y0071303D01*
X0043111Y0071300D01*
X0037800Y0176300D02*
X0037802Y0176418D01*
X0037808Y0176536D01*
X0037818Y0176654D01*
X0037832Y0176771D01*
X0037850Y0176888D01*
X0037872Y0177005D01*
X0037897Y0177120D01*
X0037927Y0177234D01*
X0037961Y0177348D01*
X0037998Y0177460D01*
X0038039Y0177571D01*
X0038084Y0177680D01*
X0038132Y0177788D01*
X0038184Y0177894D01*
X0038240Y0177999D01*
X0038299Y0178101D01*
X0038361Y0178201D01*
X0038427Y0178299D01*
X0038496Y0178395D01*
X0038569Y0178489D01*
X0038644Y0178580D01*
X0038723Y0178668D01*
X0038804Y0178754D01*
X0038889Y0178837D01*
X0038976Y0178917D01*
X0039065Y0178994D01*
X0039158Y0179068D01*
X0039252Y0179138D01*
X0039349Y0179206D01*
X0039449Y0179270D01*
X0039550Y0179331D01*
X0039653Y0179388D01*
X0039759Y0179442D01*
X0039866Y0179493D01*
X0039974Y0179539D01*
X0040084Y0179582D01*
X0040196Y0179621D01*
X0040309Y0179657D01*
X0040423Y0179688D01*
X0040538Y0179716D01*
X0040653Y0179740D01*
X0040770Y0179760D01*
X0040887Y0179776D01*
X0041005Y0179788D01*
X0041123Y0179796D01*
X0041241Y0179800D01*
X0041359Y0179800D01*
X0041477Y0179796D01*
X0041595Y0179788D01*
X0041713Y0179776D01*
X0041830Y0179760D01*
X0041947Y0179740D01*
X0042062Y0179716D01*
X0042177Y0179688D01*
X0042291Y0179657D01*
X0042404Y0179621D01*
X0042516Y0179582D01*
X0042626Y0179539D01*
X0042734Y0179493D01*
X0042841Y0179442D01*
X0042947Y0179388D01*
X0043050Y0179331D01*
X0043151Y0179270D01*
X0043251Y0179206D01*
X0043348Y0179138D01*
X0043442Y0179068D01*
X0043535Y0178994D01*
X0043624Y0178917D01*
X0043711Y0178837D01*
X0043796Y0178754D01*
X0043877Y0178668D01*
X0043956Y0178580D01*
X0044031Y0178489D01*
X0044104Y0178395D01*
X0044173Y0178299D01*
X0044239Y0178201D01*
X0044301Y0178101D01*
X0044360Y0177999D01*
X0044416Y0177894D01*
X0044468Y0177788D01*
X0044516Y0177680D01*
X0044561Y0177571D01*
X0044602Y0177460D01*
X0044639Y0177348D01*
X0044673Y0177234D01*
X0044703Y0177120D01*
X0044728Y0177005D01*
X0044750Y0176888D01*
X0044768Y0176771D01*
X0044782Y0176654D01*
X0044792Y0176536D01*
X0044798Y0176418D01*
X0044800Y0176300D01*
X0044798Y0176182D01*
X0044792Y0176064D01*
X0044782Y0175946D01*
X0044768Y0175829D01*
X0044750Y0175712D01*
X0044728Y0175595D01*
X0044703Y0175480D01*
X0044673Y0175366D01*
X0044639Y0175252D01*
X0044602Y0175140D01*
X0044561Y0175029D01*
X0044516Y0174920D01*
X0044468Y0174812D01*
X0044416Y0174706D01*
X0044360Y0174601D01*
X0044301Y0174499D01*
X0044239Y0174399D01*
X0044173Y0174301D01*
X0044104Y0174205D01*
X0044031Y0174111D01*
X0043956Y0174020D01*
X0043877Y0173932D01*
X0043796Y0173846D01*
X0043711Y0173763D01*
X0043624Y0173683D01*
X0043535Y0173606D01*
X0043442Y0173532D01*
X0043348Y0173462D01*
X0043251Y0173394D01*
X0043151Y0173330D01*
X0043050Y0173269D01*
X0042947Y0173212D01*
X0042841Y0173158D01*
X0042734Y0173107D01*
X0042626Y0173061D01*
X0042516Y0173018D01*
X0042404Y0172979D01*
X0042291Y0172943D01*
X0042177Y0172912D01*
X0042062Y0172884D01*
X0041947Y0172860D01*
X0041830Y0172840D01*
X0041713Y0172824D01*
X0041595Y0172812D01*
X0041477Y0172804D01*
X0041359Y0172800D01*
X0041241Y0172800D01*
X0041123Y0172804D01*
X0041005Y0172812D01*
X0040887Y0172824D01*
X0040770Y0172840D01*
X0040653Y0172860D01*
X0040538Y0172884D01*
X0040423Y0172912D01*
X0040309Y0172943D01*
X0040196Y0172979D01*
X0040084Y0173018D01*
X0039974Y0173061D01*
X0039866Y0173107D01*
X0039759Y0173158D01*
X0039653Y0173212D01*
X0039550Y0173269D01*
X0039449Y0173330D01*
X0039349Y0173394D01*
X0039252Y0173462D01*
X0039158Y0173532D01*
X0039065Y0173606D01*
X0038976Y0173683D01*
X0038889Y0173763D01*
X0038804Y0173846D01*
X0038723Y0173932D01*
X0038644Y0174020D01*
X0038569Y0174111D01*
X0038496Y0174205D01*
X0038427Y0174301D01*
X0038361Y0174399D01*
X0038299Y0174499D01*
X0038240Y0174601D01*
X0038184Y0174706D01*
X0038132Y0174812D01*
X0038084Y0174920D01*
X0038039Y0175029D01*
X0037998Y0175140D01*
X0037961Y0175252D01*
X0037927Y0175366D01*
X0037897Y0175480D01*
X0037872Y0175595D01*
X0037850Y0175712D01*
X0037832Y0175829D01*
X0037818Y0175946D01*
X0037808Y0176064D01*
X0037802Y0176182D01*
X0037800Y0176300D01*
X0037800Y0236300D02*
X0037802Y0236418D01*
X0037808Y0236536D01*
X0037818Y0236654D01*
X0037832Y0236771D01*
X0037850Y0236888D01*
X0037872Y0237005D01*
X0037897Y0237120D01*
X0037927Y0237234D01*
X0037961Y0237348D01*
X0037998Y0237460D01*
X0038039Y0237571D01*
X0038084Y0237680D01*
X0038132Y0237788D01*
X0038184Y0237894D01*
X0038240Y0237999D01*
X0038299Y0238101D01*
X0038361Y0238201D01*
X0038427Y0238299D01*
X0038496Y0238395D01*
X0038569Y0238489D01*
X0038644Y0238580D01*
X0038723Y0238668D01*
X0038804Y0238754D01*
X0038889Y0238837D01*
X0038976Y0238917D01*
X0039065Y0238994D01*
X0039158Y0239068D01*
X0039252Y0239138D01*
X0039349Y0239206D01*
X0039449Y0239270D01*
X0039550Y0239331D01*
X0039653Y0239388D01*
X0039759Y0239442D01*
X0039866Y0239493D01*
X0039974Y0239539D01*
X0040084Y0239582D01*
X0040196Y0239621D01*
X0040309Y0239657D01*
X0040423Y0239688D01*
X0040538Y0239716D01*
X0040653Y0239740D01*
X0040770Y0239760D01*
X0040887Y0239776D01*
X0041005Y0239788D01*
X0041123Y0239796D01*
X0041241Y0239800D01*
X0041359Y0239800D01*
X0041477Y0239796D01*
X0041595Y0239788D01*
X0041713Y0239776D01*
X0041830Y0239760D01*
X0041947Y0239740D01*
X0042062Y0239716D01*
X0042177Y0239688D01*
X0042291Y0239657D01*
X0042404Y0239621D01*
X0042516Y0239582D01*
X0042626Y0239539D01*
X0042734Y0239493D01*
X0042841Y0239442D01*
X0042947Y0239388D01*
X0043050Y0239331D01*
X0043151Y0239270D01*
X0043251Y0239206D01*
X0043348Y0239138D01*
X0043442Y0239068D01*
X0043535Y0238994D01*
X0043624Y0238917D01*
X0043711Y0238837D01*
X0043796Y0238754D01*
X0043877Y0238668D01*
X0043956Y0238580D01*
X0044031Y0238489D01*
X0044104Y0238395D01*
X0044173Y0238299D01*
X0044239Y0238201D01*
X0044301Y0238101D01*
X0044360Y0237999D01*
X0044416Y0237894D01*
X0044468Y0237788D01*
X0044516Y0237680D01*
X0044561Y0237571D01*
X0044602Y0237460D01*
X0044639Y0237348D01*
X0044673Y0237234D01*
X0044703Y0237120D01*
X0044728Y0237005D01*
X0044750Y0236888D01*
X0044768Y0236771D01*
X0044782Y0236654D01*
X0044792Y0236536D01*
X0044798Y0236418D01*
X0044800Y0236300D01*
X0044798Y0236182D01*
X0044792Y0236064D01*
X0044782Y0235946D01*
X0044768Y0235829D01*
X0044750Y0235712D01*
X0044728Y0235595D01*
X0044703Y0235480D01*
X0044673Y0235366D01*
X0044639Y0235252D01*
X0044602Y0235140D01*
X0044561Y0235029D01*
X0044516Y0234920D01*
X0044468Y0234812D01*
X0044416Y0234706D01*
X0044360Y0234601D01*
X0044301Y0234499D01*
X0044239Y0234399D01*
X0044173Y0234301D01*
X0044104Y0234205D01*
X0044031Y0234111D01*
X0043956Y0234020D01*
X0043877Y0233932D01*
X0043796Y0233846D01*
X0043711Y0233763D01*
X0043624Y0233683D01*
X0043535Y0233606D01*
X0043442Y0233532D01*
X0043348Y0233462D01*
X0043251Y0233394D01*
X0043151Y0233330D01*
X0043050Y0233269D01*
X0042947Y0233212D01*
X0042841Y0233158D01*
X0042734Y0233107D01*
X0042626Y0233061D01*
X0042516Y0233018D01*
X0042404Y0232979D01*
X0042291Y0232943D01*
X0042177Y0232912D01*
X0042062Y0232884D01*
X0041947Y0232860D01*
X0041830Y0232840D01*
X0041713Y0232824D01*
X0041595Y0232812D01*
X0041477Y0232804D01*
X0041359Y0232800D01*
X0041241Y0232800D01*
X0041123Y0232804D01*
X0041005Y0232812D01*
X0040887Y0232824D01*
X0040770Y0232840D01*
X0040653Y0232860D01*
X0040538Y0232884D01*
X0040423Y0232912D01*
X0040309Y0232943D01*
X0040196Y0232979D01*
X0040084Y0233018D01*
X0039974Y0233061D01*
X0039866Y0233107D01*
X0039759Y0233158D01*
X0039653Y0233212D01*
X0039550Y0233269D01*
X0039449Y0233330D01*
X0039349Y0233394D01*
X0039252Y0233462D01*
X0039158Y0233532D01*
X0039065Y0233606D01*
X0038976Y0233683D01*
X0038889Y0233763D01*
X0038804Y0233846D01*
X0038723Y0233932D01*
X0038644Y0234020D01*
X0038569Y0234111D01*
X0038496Y0234205D01*
X0038427Y0234301D01*
X0038361Y0234399D01*
X0038299Y0234499D01*
X0038240Y0234601D01*
X0038184Y0234706D01*
X0038132Y0234812D01*
X0038084Y0234920D01*
X0038039Y0235029D01*
X0037998Y0235140D01*
X0037961Y0235252D01*
X0037927Y0235366D01*
X0037897Y0235480D01*
X0037872Y0235595D01*
X0037850Y0235712D01*
X0037832Y0235829D01*
X0037818Y0235946D01*
X0037808Y0236064D01*
X0037802Y0236182D01*
X0037800Y0236300D01*
X0197800Y0236300D02*
X0197802Y0236418D01*
X0197808Y0236536D01*
X0197818Y0236654D01*
X0197832Y0236771D01*
X0197850Y0236888D01*
X0197872Y0237005D01*
X0197897Y0237120D01*
X0197927Y0237234D01*
X0197961Y0237348D01*
X0197998Y0237460D01*
X0198039Y0237571D01*
X0198084Y0237680D01*
X0198132Y0237788D01*
X0198184Y0237894D01*
X0198240Y0237999D01*
X0198299Y0238101D01*
X0198361Y0238201D01*
X0198427Y0238299D01*
X0198496Y0238395D01*
X0198569Y0238489D01*
X0198644Y0238580D01*
X0198723Y0238668D01*
X0198804Y0238754D01*
X0198889Y0238837D01*
X0198976Y0238917D01*
X0199065Y0238994D01*
X0199158Y0239068D01*
X0199252Y0239138D01*
X0199349Y0239206D01*
X0199449Y0239270D01*
X0199550Y0239331D01*
X0199653Y0239388D01*
X0199759Y0239442D01*
X0199866Y0239493D01*
X0199974Y0239539D01*
X0200084Y0239582D01*
X0200196Y0239621D01*
X0200309Y0239657D01*
X0200423Y0239688D01*
X0200538Y0239716D01*
X0200653Y0239740D01*
X0200770Y0239760D01*
X0200887Y0239776D01*
X0201005Y0239788D01*
X0201123Y0239796D01*
X0201241Y0239800D01*
X0201359Y0239800D01*
X0201477Y0239796D01*
X0201595Y0239788D01*
X0201713Y0239776D01*
X0201830Y0239760D01*
X0201947Y0239740D01*
X0202062Y0239716D01*
X0202177Y0239688D01*
X0202291Y0239657D01*
X0202404Y0239621D01*
X0202516Y0239582D01*
X0202626Y0239539D01*
X0202734Y0239493D01*
X0202841Y0239442D01*
X0202947Y0239388D01*
X0203050Y0239331D01*
X0203151Y0239270D01*
X0203251Y0239206D01*
X0203348Y0239138D01*
X0203442Y0239068D01*
X0203535Y0238994D01*
X0203624Y0238917D01*
X0203711Y0238837D01*
X0203796Y0238754D01*
X0203877Y0238668D01*
X0203956Y0238580D01*
X0204031Y0238489D01*
X0204104Y0238395D01*
X0204173Y0238299D01*
X0204239Y0238201D01*
X0204301Y0238101D01*
X0204360Y0237999D01*
X0204416Y0237894D01*
X0204468Y0237788D01*
X0204516Y0237680D01*
X0204561Y0237571D01*
X0204602Y0237460D01*
X0204639Y0237348D01*
X0204673Y0237234D01*
X0204703Y0237120D01*
X0204728Y0237005D01*
X0204750Y0236888D01*
X0204768Y0236771D01*
X0204782Y0236654D01*
X0204792Y0236536D01*
X0204798Y0236418D01*
X0204800Y0236300D01*
X0204798Y0236182D01*
X0204792Y0236064D01*
X0204782Y0235946D01*
X0204768Y0235829D01*
X0204750Y0235712D01*
X0204728Y0235595D01*
X0204703Y0235480D01*
X0204673Y0235366D01*
X0204639Y0235252D01*
X0204602Y0235140D01*
X0204561Y0235029D01*
X0204516Y0234920D01*
X0204468Y0234812D01*
X0204416Y0234706D01*
X0204360Y0234601D01*
X0204301Y0234499D01*
X0204239Y0234399D01*
X0204173Y0234301D01*
X0204104Y0234205D01*
X0204031Y0234111D01*
X0203956Y0234020D01*
X0203877Y0233932D01*
X0203796Y0233846D01*
X0203711Y0233763D01*
X0203624Y0233683D01*
X0203535Y0233606D01*
X0203442Y0233532D01*
X0203348Y0233462D01*
X0203251Y0233394D01*
X0203151Y0233330D01*
X0203050Y0233269D01*
X0202947Y0233212D01*
X0202841Y0233158D01*
X0202734Y0233107D01*
X0202626Y0233061D01*
X0202516Y0233018D01*
X0202404Y0232979D01*
X0202291Y0232943D01*
X0202177Y0232912D01*
X0202062Y0232884D01*
X0201947Y0232860D01*
X0201830Y0232840D01*
X0201713Y0232824D01*
X0201595Y0232812D01*
X0201477Y0232804D01*
X0201359Y0232800D01*
X0201241Y0232800D01*
X0201123Y0232804D01*
X0201005Y0232812D01*
X0200887Y0232824D01*
X0200770Y0232840D01*
X0200653Y0232860D01*
X0200538Y0232884D01*
X0200423Y0232912D01*
X0200309Y0232943D01*
X0200196Y0232979D01*
X0200084Y0233018D01*
X0199974Y0233061D01*
X0199866Y0233107D01*
X0199759Y0233158D01*
X0199653Y0233212D01*
X0199550Y0233269D01*
X0199449Y0233330D01*
X0199349Y0233394D01*
X0199252Y0233462D01*
X0199158Y0233532D01*
X0199065Y0233606D01*
X0198976Y0233683D01*
X0198889Y0233763D01*
X0198804Y0233846D01*
X0198723Y0233932D01*
X0198644Y0234020D01*
X0198569Y0234111D01*
X0198496Y0234205D01*
X0198427Y0234301D01*
X0198361Y0234399D01*
X0198299Y0234499D01*
X0198240Y0234601D01*
X0198184Y0234706D01*
X0198132Y0234812D01*
X0198084Y0234920D01*
X0198039Y0235029D01*
X0197998Y0235140D01*
X0197961Y0235252D01*
X0197927Y0235366D01*
X0197897Y0235480D01*
X0197872Y0235595D01*
X0197850Y0235712D01*
X0197832Y0235829D01*
X0197818Y0235946D01*
X0197808Y0236064D01*
X0197802Y0236182D01*
X0197800Y0236300D01*
X0197800Y0176300D02*
X0197802Y0176418D01*
X0197808Y0176536D01*
X0197818Y0176654D01*
X0197832Y0176771D01*
X0197850Y0176888D01*
X0197872Y0177005D01*
X0197897Y0177120D01*
X0197927Y0177234D01*
X0197961Y0177348D01*
X0197998Y0177460D01*
X0198039Y0177571D01*
X0198084Y0177680D01*
X0198132Y0177788D01*
X0198184Y0177894D01*
X0198240Y0177999D01*
X0198299Y0178101D01*
X0198361Y0178201D01*
X0198427Y0178299D01*
X0198496Y0178395D01*
X0198569Y0178489D01*
X0198644Y0178580D01*
X0198723Y0178668D01*
X0198804Y0178754D01*
X0198889Y0178837D01*
X0198976Y0178917D01*
X0199065Y0178994D01*
X0199158Y0179068D01*
X0199252Y0179138D01*
X0199349Y0179206D01*
X0199449Y0179270D01*
X0199550Y0179331D01*
X0199653Y0179388D01*
X0199759Y0179442D01*
X0199866Y0179493D01*
X0199974Y0179539D01*
X0200084Y0179582D01*
X0200196Y0179621D01*
X0200309Y0179657D01*
X0200423Y0179688D01*
X0200538Y0179716D01*
X0200653Y0179740D01*
X0200770Y0179760D01*
X0200887Y0179776D01*
X0201005Y0179788D01*
X0201123Y0179796D01*
X0201241Y0179800D01*
X0201359Y0179800D01*
X0201477Y0179796D01*
X0201595Y0179788D01*
X0201713Y0179776D01*
X0201830Y0179760D01*
X0201947Y0179740D01*
X0202062Y0179716D01*
X0202177Y0179688D01*
X0202291Y0179657D01*
X0202404Y0179621D01*
X0202516Y0179582D01*
X0202626Y0179539D01*
X0202734Y0179493D01*
X0202841Y0179442D01*
X0202947Y0179388D01*
X0203050Y0179331D01*
X0203151Y0179270D01*
X0203251Y0179206D01*
X0203348Y0179138D01*
X0203442Y0179068D01*
X0203535Y0178994D01*
X0203624Y0178917D01*
X0203711Y0178837D01*
X0203796Y0178754D01*
X0203877Y0178668D01*
X0203956Y0178580D01*
X0204031Y0178489D01*
X0204104Y0178395D01*
X0204173Y0178299D01*
X0204239Y0178201D01*
X0204301Y0178101D01*
X0204360Y0177999D01*
X0204416Y0177894D01*
X0204468Y0177788D01*
X0204516Y0177680D01*
X0204561Y0177571D01*
X0204602Y0177460D01*
X0204639Y0177348D01*
X0204673Y0177234D01*
X0204703Y0177120D01*
X0204728Y0177005D01*
X0204750Y0176888D01*
X0204768Y0176771D01*
X0204782Y0176654D01*
X0204792Y0176536D01*
X0204798Y0176418D01*
X0204800Y0176300D01*
X0204798Y0176182D01*
X0204792Y0176064D01*
X0204782Y0175946D01*
X0204768Y0175829D01*
X0204750Y0175712D01*
X0204728Y0175595D01*
X0204703Y0175480D01*
X0204673Y0175366D01*
X0204639Y0175252D01*
X0204602Y0175140D01*
X0204561Y0175029D01*
X0204516Y0174920D01*
X0204468Y0174812D01*
X0204416Y0174706D01*
X0204360Y0174601D01*
X0204301Y0174499D01*
X0204239Y0174399D01*
X0204173Y0174301D01*
X0204104Y0174205D01*
X0204031Y0174111D01*
X0203956Y0174020D01*
X0203877Y0173932D01*
X0203796Y0173846D01*
X0203711Y0173763D01*
X0203624Y0173683D01*
X0203535Y0173606D01*
X0203442Y0173532D01*
X0203348Y0173462D01*
X0203251Y0173394D01*
X0203151Y0173330D01*
X0203050Y0173269D01*
X0202947Y0173212D01*
X0202841Y0173158D01*
X0202734Y0173107D01*
X0202626Y0173061D01*
X0202516Y0173018D01*
X0202404Y0172979D01*
X0202291Y0172943D01*
X0202177Y0172912D01*
X0202062Y0172884D01*
X0201947Y0172860D01*
X0201830Y0172840D01*
X0201713Y0172824D01*
X0201595Y0172812D01*
X0201477Y0172804D01*
X0201359Y0172800D01*
X0201241Y0172800D01*
X0201123Y0172804D01*
X0201005Y0172812D01*
X0200887Y0172824D01*
X0200770Y0172840D01*
X0200653Y0172860D01*
X0200538Y0172884D01*
X0200423Y0172912D01*
X0200309Y0172943D01*
X0200196Y0172979D01*
X0200084Y0173018D01*
X0199974Y0173061D01*
X0199866Y0173107D01*
X0199759Y0173158D01*
X0199653Y0173212D01*
X0199550Y0173269D01*
X0199449Y0173330D01*
X0199349Y0173394D01*
X0199252Y0173462D01*
X0199158Y0173532D01*
X0199065Y0173606D01*
X0198976Y0173683D01*
X0198889Y0173763D01*
X0198804Y0173846D01*
X0198723Y0173932D01*
X0198644Y0174020D01*
X0198569Y0174111D01*
X0198496Y0174205D01*
X0198427Y0174301D01*
X0198361Y0174399D01*
X0198299Y0174499D01*
X0198240Y0174601D01*
X0198184Y0174706D01*
X0198132Y0174812D01*
X0198084Y0174920D01*
X0198039Y0175029D01*
X0197998Y0175140D01*
X0197961Y0175252D01*
X0197927Y0175366D01*
X0197897Y0175480D01*
X0197872Y0175595D01*
X0197850Y0175712D01*
X0197832Y0175829D01*
X0197818Y0175946D01*
X0197808Y0176064D01*
X0197802Y0176182D01*
X0197800Y0176300D01*
X0347520Y0184410D02*
X0347520Y0198190D01*
X0351457Y0198190D01*
X0351457Y0184410D01*
X0347520Y0184410D01*
X0371536Y0185394D02*
X0371536Y0197206D01*
X0374686Y0197206D01*
X0374686Y0185394D01*
X0371536Y0185394D01*
X0367206Y0208623D02*
X0355394Y0208623D01*
X0355394Y0211772D01*
X0367206Y0211772D01*
X0367206Y0208623D01*
M02*
