G75*
%MOIN*%
%OFA0B0*%
%FSLAX25Y25*%
%IPPOS*%
%LPD*%
%AMOC8*
5,1,8,0,0,1.08239X$1,22.5*
%
%ADD10C,0.08674*%
%ADD11C,0.07800*%
%ADD12R,0.05950X0.05950*%
%ADD13C,0.05950*%
%ADD14C,0.07400*%
%ADD15C,0.06800*%
%ADD16C,0.09400*%
%ADD17OC8,0.07800*%
%ADD18R,0.07800X0.07800*%
%ADD19OC8,0.07100*%
%ADD20C,0.07100*%
D10*
X0041300Y0081300D03*
X0396300Y0081300D03*
X0396300Y0241300D03*
D11*
X0201300Y0236300D03*
X0201300Y0176300D03*
X0041300Y0176300D03*
X0041300Y0236300D03*
D12*
X0051300Y0176300D03*
D13*
X0061300Y0176300D03*
X0071300Y0176300D03*
X0081300Y0176300D03*
X0091300Y0176300D03*
X0101300Y0176300D03*
X0111300Y0176300D03*
X0121300Y0176300D03*
X0131300Y0176300D03*
X0141300Y0176300D03*
X0151300Y0176300D03*
X0161300Y0176300D03*
X0171300Y0176300D03*
X0181300Y0176300D03*
X0191300Y0176300D03*
X0191300Y0236300D03*
X0181300Y0236300D03*
X0171300Y0236300D03*
X0161300Y0236300D03*
X0151300Y0236300D03*
X0141300Y0236300D03*
X0131300Y0236300D03*
X0121300Y0236300D03*
X0111300Y0236300D03*
X0101300Y0236300D03*
X0091300Y0236300D03*
X0081300Y0236300D03*
X0071300Y0236300D03*
X0061300Y0236300D03*
X0051300Y0236300D03*
D14*
X0051300Y0156300D03*
X0061300Y0156300D03*
X0071300Y0156300D03*
X0081300Y0156300D03*
X0091300Y0156300D03*
X0101300Y0156300D03*
X0111300Y0156300D03*
X0121300Y0156300D03*
X0141300Y0156300D03*
X0151300Y0156300D03*
X0161300Y0156300D03*
X0171300Y0156300D03*
X0181300Y0156300D03*
X0191300Y0156300D03*
X0201300Y0156300D03*
X0211300Y0156300D03*
X0231300Y0156300D03*
X0241300Y0156300D03*
X0251300Y0156300D03*
X0261300Y0156300D03*
X0271300Y0156300D03*
X0281300Y0156300D03*
X0291300Y0156300D03*
X0301300Y0156300D03*
X0321300Y0156300D03*
X0331300Y0156300D03*
X0341300Y0156300D03*
X0351300Y0156300D03*
X0361300Y0156300D03*
X0371300Y0156300D03*
X0381300Y0156300D03*
X0391300Y0156300D03*
X0391300Y0106300D03*
X0381300Y0106300D03*
X0371300Y0106300D03*
X0361300Y0106300D03*
X0351300Y0106300D03*
X0341300Y0106300D03*
X0331300Y0106300D03*
X0321300Y0106300D03*
X0301300Y0106300D03*
X0291300Y0106300D03*
X0281300Y0106300D03*
X0271300Y0106300D03*
X0261300Y0106300D03*
X0251300Y0106300D03*
X0241300Y0106300D03*
X0231300Y0106300D03*
X0211300Y0106300D03*
X0201300Y0106300D03*
X0191300Y0106300D03*
X0181300Y0106300D03*
X0171300Y0106300D03*
X0161300Y0106300D03*
X0151300Y0106300D03*
X0141300Y0106300D03*
X0121300Y0106300D03*
X0111300Y0106300D03*
X0101300Y0106300D03*
X0091300Y0106300D03*
X0081300Y0106300D03*
X0071300Y0106300D03*
X0061300Y0106300D03*
X0051300Y0106300D03*
D15*
X0071300Y0084300D02*
X0071300Y0078300D01*
X0081300Y0078300D02*
X0081300Y0084300D01*
X0091300Y0084300D02*
X0091300Y0078300D01*
X0101300Y0078300D02*
X0101300Y0084300D01*
X0161300Y0084300D02*
X0161300Y0078300D01*
X0171300Y0078300D02*
X0171300Y0084300D01*
X0181300Y0084300D02*
X0181300Y0078300D01*
X0191300Y0078300D02*
X0191300Y0084300D01*
X0251300Y0084300D02*
X0251300Y0078300D01*
X0261300Y0078300D02*
X0261300Y0084300D01*
X0271300Y0084300D02*
X0271300Y0078300D01*
X0281300Y0078300D02*
X0281300Y0084300D01*
X0341300Y0084300D02*
X0341300Y0078300D01*
X0351300Y0078300D02*
X0351300Y0084300D01*
X0361300Y0084300D02*
X0361300Y0078300D01*
X0371300Y0078300D02*
X0371300Y0084300D01*
D16*
X0373111Y0187000D02*
X0373111Y0195600D01*
X0365600Y0210198D02*
X0357000Y0210198D01*
X0349489Y0195600D02*
X0349489Y0187000D01*
D17*
X0261300Y0186300D03*
X0251300Y0186300D03*
X0241300Y0186300D03*
X0231300Y0186300D03*
X0231300Y0196300D03*
X0241300Y0196300D03*
X0251300Y0196300D03*
X0261300Y0196300D03*
X0262300Y0213300D03*
X0251300Y0213300D03*
X0240300Y0213300D03*
X0229300Y0213300D03*
X0229300Y0223300D03*
X0240300Y0223300D03*
X0251300Y0223300D03*
X0262300Y0223300D03*
X0262300Y0233300D03*
X0251300Y0233300D03*
X0240300Y0233300D03*
X0229300Y0233300D03*
D18*
X0229300Y0243300D03*
X0240300Y0243300D03*
X0251300Y0243300D03*
X0262300Y0243300D03*
X0261300Y0176300D03*
X0251300Y0176300D03*
X0241300Y0176300D03*
X0231300Y0176300D03*
D19*
X0281300Y0191300D03*
X0331300Y0191300D03*
D20*
X0331300Y0201300D03*
X0281300Y0201300D03*
M02*
